<?xml version="1.0" encoding="UTF-8" standalone="no"?>
<!DOCTYPE svg PUBLIC "-//W3C//DTD SVG 1.1//EN"
 "http://www.w3.org/Graphics/SVG/1.1/DTD/svg11.dtd">
<!-- Generated by graphviz version 2.38.0 (20140413.2041)
 -->
<!-- Title: %3 Pages: 1 -->
<svg width="2058pt" height="404pt"
 viewBox="0.00 0.00 2058.38 404.00" xmlns="http://www.w3.org/2000/svg" xmlns:xlink="http://www.w3.org/1999/xlink">
<g id="graph0" class="graph" transform="scale(1 1) rotate(0) translate(4 400)">
<title>%3</title>
<polygon fill="white" stroke="none" points="-4,4 -4,-400 2054.38,-400 2054.38,4 -4,4"/>
<!-- 053 -->
<g id="node1" class="node"><title>053</title>
<ellipse fill="none" stroke="black" cx="180.747" cy="-378" rx="27" ry="18"/>
<text text-anchor="middle" x="180.747" y="-374.3" font-family="Times New Roman,serif" font-size="14.00">053</text>
</g>
<!-- 369 -->
<g id="node2" class="node"><title>369</title>
<ellipse fill="none" stroke="black" cx="144.747" cy="-306" rx="27" ry="18"/>
<text text-anchor="middle" x="144.747" y="-302.3" font-family="Times New Roman,serif" font-size="14.00">369</text>
</g>
<!-- 053&#45;&gt;369 -->
<g id="edge1" class="edge"><title>053&#45;&gt;369</title>
<path fill="none" stroke="black" d="M172.397,-360.765C168.035,-352.283 162.6,-341.714 157.706,-332.197"/>
<polygon fill="black" stroke="black" points="160.737,-330.439 153.051,-323.147 154.512,-333.641 160.737,-330.439"/>
</g>
<!-- 371 -->
<g id="node5" class="node"><title>371</title>
<ellipse fill="none" stroke="black" cx="239.747" cy="-306" rx="27" ry="18"/>
<text text-anchor="middle" x="239.747" y="-302.3" font-family="Times New Roman,serif" font-size="14.00">371</text>
</g>
<!-- 053&#45;&gt;371 -->
<g id="edge5" class="edge"><title>053&#45;&gt;371</title>
<path fill="none" stroke="black" d="M193.549,-361.811C201.358,-352.546 211.494,-340.52 220.282,-330.094"/>
<polygon fill="black" stroke="black" points="223.201,-332.061 226.97,-322.159 217.849,-327.55 223.201,-332.061"/>
</g>
<!-- 367 -->
<g id="node3" class="node"><title>367</title>
<ellipse fill="none" stroke="black" cx="41.7468" cy="-234" rx="27" ry="18"/>
<text text-anchor="middle" x="41.7468" y="-230.3" font-family="Times New Roman,serif" font-size="14.00">367</text>
</g>
<!-- 369&#45;&gt;367 -->
<g id="edge2" class="edge"><title>369&#45;&gt;367</title>
<path fill="none" stroke="black" d="M126.332,-292.485C110.221,-281.536 86.6174,-265.495 68.4354,-253.138"/>
<polygon fill="black" stroke="black" points="70.2398,-250.132 60.0017,-247.406 66.3052,-255.922 70.2398,-250.132"/>
</g>
<!-- 370 -->
<g id="node7" class="node"><title>370</title>
<ellipse fill="none" stroke="black" cx="144.747" cy="-234" rx="27" ry="18"/>
<text text-anchor="middle" x="144.747" y="-230.3" font-family="Times New Roman,serif" font-size="14.00">370</text>
</g>
<!-- 369&#45;&gt;370 -->
<g id="edge7" class="edge"><title>369&#45;&gt;370</title>
<path fill="none" stroke="black" d="M144.747,-287.697C144.747,-279.983 144.747,-270.712 144.747,-262.112"/>
<polygon fill="black" stroke="black" points="148.247,-262.104 144.747,-252.104 141.247,-262.104 148.247,-262.104"/>
</g>
<!-- DATA -->
<g id="node4" class="node"><title>DATA</title>
<ellipse fill="none" stroke="black" cx="35.7468" cy="-162" rx="35.9954" ry="18"/>
<text text-anchor="middle" x="35.7468" y="-158.3" font-family="Times New Roman,serif" font-size="14.00">DATA</text>
</g>
<!-- 367&#45;&gt;DATA -->
<g id="edge3" class="edge"><title>367&#45;&gt;DATA</title>
<path fill="none" stroke="black" d="M40.2637,-215.697C39.6025,-207.983 38.8079,-198.712 38.0708,-190.112"/>
<polygon fill="black" stroke="black" points="41.5542,-189.769 37.2129,-180.104 34.5798,-190.367 41.5542,-189.769"/>
</g>
<!-- 371&#45;CONCEITO -->
<g id="node6" class="node"><title>371&#45;CONCEITO</title>
<ellipse fill="none" stroke="black" cx="262.747" cy="-234" rx="73.387" ry="18"/>
<text text-anchor="middle" x="262.747" y="-230.3" font-family="Times New Roman,serif" font-size="14.00">371&#45;CONCEITO</text>
</g>
<!-- 371&#45;&gt;371&#45;CONCEITO -->
<g id="edge4" class="edge"><title>371&#45;&gt;371&#45;CONCEITO</title>
<path fill="none" stroke="red" d="M245.314,-288.055C247.903,-280.176 251.044,-270.617 253.943,-261.794"/>
<polygon fill="red" stroke="red" points="257.274,-262.868 257.071,-252.275 250.624,-260.683 257.274,-262.868"/>
</g>
<!-- 370&#45;MIME_TYPE_TEXT_THUMB -->
<g id="node8" class="node"><title>370&#45;MIME_TYPE_TEXT_THUMB</title>
<ellipse fill="none" stroke="black" cx="232.747" cy="-162" rx="143.775" ry="18"/>
<text text-anchor="middle" x="232.747" y="-158.3" font-family="Times New Roman,serif" font-size="14.00">370&#45;MIME_TYPE_TEXT_THUMB</text>
</g>
<!-- 370&#45;&gt;370&#45;MIME_TYPE_TEXT_THUMB -->
<g id="edge6" class="edge"><title>370&#45;&gt;370&#45;MIME_TYPE_TEXT_THUMB</title>
<path fill="none" stroke="red" d="M161.714,-219.503C173.571,-210.071 189.705,-197.238 203.599,-186.185"/>
<polygon fill="red" stroke="red" points="205.825,-188.887 211.473,-179.923 201.468,-183.409 205.825,-188.887"/>
</g>
<!-- 373 -->
<g id="node9" class="node"><title>373</title>
<ellipse fill="none" stroke="black" cx="461.747" cy="-306" rx="27" ry="18"/>
<text text-anchor="middle" x="461.747" y="-302.3" font-family="Times New Roman,serif" font-size="14.00">373</text>
</g>
<!-- 373&#45;CONCEITO -->
<g id="node10" class="node"><title>373&#45;CONCEITO</title>
<ellipse fill="none" stroke="black" cx="438.747" cy="-234" rx="73.387" ry="18"/>
<text text-anchor="middle" x="438.747" y="-230.3" font-family="Times New Roman,serif" font-size="14.00">373&#45;CONCEITO</text>
</g>
<!-- 373&#45;&gt;373&#45;CONCEITO -->
<g id="edge8" class="edge"><title>373&#45;&gt;373&#45;CONCEITO</title>
<path fill="none" stroke="red" d="M456.179,-288.055C453.59,-280.176 450.449,-270.617 447.551,-261.794"/>
<polygon fill="red" stroke="red" points="450.87,-260.683 444.423,-252.275 444.219,-262.868 450.87,-260.683"/>
</g>
<!-- 372 -->
<g id="node11" class="node"><title>372</title>
<ellipse fill="none" stroke="black" cx="508.747" cy="-378" rx="27" ry="18"/>
<text text-anchor="middle" x="508.747" y="-374.3" font-family="Times New Roman,serif" font-size="14.00">372</text>
</g>
<!-- 372&#45;&gt;373 -->
<g id="edge9" class="edge"><title>372&#45;&gt;373</title>
<path fill="none" stroke="black" d="M498.082,-361.116C492.193,-352.345 484.752,-341.264 478.141,-331.416"/>
<polygon fill="black" stroke="black" points="480.85,-329.172 472.37,-322.821 475.038,-333.074 480.85,-329.172"/>
</g>
<!-- 377 -->
<g id="node12" class="node"><title>377</title>
<ellipse fill="none" stroke="black" cx="556.747" cy="-306" rx="27" ry="18"/>
<text text-anchor="middle" x="556.747" y="-302.3" font-family="Times New Roman,serif" font-size="14.00">377</text>
</g>
<!-- 372&#45;&gt;377 -->
<g id="edge10" class="edge"><title>372&#45;&gt;377</title>
<path fill="none" stroke="black" d="M519.639,-361.116C525.715,-352.255 533.407,-341.037 540.211,-331.115"/>
<polygon fill="black" stroke="black" points="543.129,-333.048 545.898,-322.821 537.356,-329.089 543.129,-333.048"/>
</g>
<!-- 375 -->
<g id="node13" class="node"><title>375</title>
<ellipse fill="none" stroke="black" cx="556.747" cy="-234" rx="27" ry="18"/>
<text text-anchor="middle" x="556.747" y="-230.3" font-family="Times New Roman,serif" font-size="14.00">375</text>
</g>
<!-- 377&#45;&gt;375 -->
<g id="edge11" class="edge"><title>377&#45;&gt;375</title>
<path fill="none" stroke="black" d="M556.747,-287.697C556.747,-279.983 556.747,-270.712 556.747,-262.112"/>
<polygon fill="black" stroke="black" points="560.247,-262.104 556.747,-252.104 553.247,-262.104 560.247,-262.104"/>
</g>
<!-- 378 -->
<g id="node15" class="node"><title>378</title>
<ellipse fill="none" stroke="black" cx="651.747" cy="-234" rx="27" ry="18"/>
<text text-anchor="middle" x="651.747" y="-230.3" font-family="Times New Roman,serif" font-size="14.00">378</text>
</g>
<!-- 377&#45;&gt;378 -->
<g id="edge14" class="edge"><title>377&#45;&gt;378</title>
<path fill="none" stroke="black" d="M574.171,-292.161C588.677,-281.473 609.539,-266.101 625.976,-253.989"/>
<polygon fill="black" stroke="black" points="628.137,-256.744 634.111,-247.995 623.984,-251.109 628.137,-256.744"/>
</g>
<!-- Filme0 -->
<g id="node14" class="node"><title>Filme0</title>
<ellipse fill="none" stroke="black" cx="485.747" cy="-162" rx="35.194" ry="18"/>
<text text-anchor="middle" x="485.747" y="-158.3" font-family="Times New Roman,serif" font-size="14.00">Filme0</text>
</g>
<!-- 375&#45;&gt;Filme0 -->
<g id="edge12" class="edge"><title>375&#45;&gt;Filme0</title>
<path fill="none" stroke="black" d="M542.036,-218.496C532.399,-208.995 519.607,-196.383 508.653,-185.583"/>
<polygon fill="black" stroke="black" points="511.003,-182.985 501.424,-178.457 506.088,-187.97 511.003,-182.985"/>
</g>
<!-- 378&#45;MIME_TYPE_TEXT_THUMB -->
<g id="node16" class="node"><title>378&#45;MIME_TYPE_TEXT_THUMB</title>
<ellipse fill="none" stroke="black" cx="682.747" cy="-162" rx="143.775" ry="18"/>
<text text-anchor="middle" x="682.747" y="-158.3" font-family="Times New Roman,serif" font-size="14.00">378&#45;MIME_TYPE_TEXT_THUMB</text>
</g>
<!-- 378&#45;&gt;378&#45;MIME_TYPE_TEXT_THUMB -->
<g id="edge13" class="edge"><title>378&#45;&gt;378&#45;MIME_TYPE_TEXT_THUMB</title>
<path fill="none" stroke="red" d="M659.093,-216.411C662.617,-208.454 666.927,-198.722 670.898,-189.756"/>
<polygon fill="red" stroke="red" points="674.171,-191.008 675.02,-180.447 667.771,-188.173 674.171,-191.008"/>
</g>
<!-- 380 -->
<g id="node17" class="node"><title>380</title>
<ellipse fill="none" stroke="black" cx="829.747" cy="-306" rx="27" ry="18"/>
<text text-anchor="middle" x="829.747" y="-302.3" font-family="Times New Roman,serif" font-size="14.00">380</text>
</g>
<!-- 380&#45;CONCEITO -->
<g id="node18" class="node"><title>380&#45;CONCEITO</title>
<ellipse fill="none" stroke="black" cx="806.747" cy="-234" rx="73.387" ry="18"/>
<text text-anchor="middle" x="806.747" y="-230.3" font-family="Times New Roman,serif" font-size="14.00">380&#45;CONCEITO</text>
</g>
<!-- 380&#45;&gt;380&#45;CONCEITO -->
<g id="edge15" class="edge"><title>380&#45;&gt;380&#45;CONCEITO</title>
<path fill="none" stroke="red" d="M824.179,-288.055C821.59,-280.176 818.449,-270.617 815.551,-261.794"/>
<polygon fill="red" stroke="red" points="818.87,-260.683 812.423,-252.275 812.219,-262.868 818.87,-260.683"/>
</g>
<!-- 379 -->
<g id="node19" class="node"><title>379</title>
<ellipse fill="none" stroke="black" cx="876.747" cy="-378" rx="27" ry="18"/>
<text text-anchor="middle" x="876.747" y="-374.3" font-family="Times New Roman,serif" font-size="14.00">379</text>
</g>
<!-- 379&#45;&gt;380 -->
<g id="edge16" class="edge"><title>379&#45;&gt;380</title>
<path fill="none" stroke="black" d="M866.082,-361.116C860.193,-352.345 852.752,-341.264 846.141,-331.416"/>
<polygon fill="black" stroke="black" points="848.85,-329.172 840.37,-322.821 843.038,-333.074 848.85,-329.172"/>
</g>
<!-- 384 -->
<g id="node20" class="node"><title>384</title>
<ellipse fill="none" stroke="black" cx="924.747" cy="-306" rx="27" ry="18"/>
<text text-anchor="middle" x="924.747" y="-302.3" font-family="Times New Roman,serif" font-size="14.00">384</text>
</g>
<!-- 379&#45;&gt;384 -->
<g id="edge17" class="edge"><title>379&#45;&gt;384</title>
<path fill="none" stroke="black" d="M887.639,-361.116C893.715,-352.255 901.407,-341.037 908.211,-331.115"/>
<polygon fill="black" stroke="black" points="911.129,-333.048 913.898,-322.821 905.356,-329.089 911.129,-333.048"/>
</g>
<!-- 382 -->
<g id="node21" class="node"><title>382</title>
<ellipse fill="none" stroke="black" cx="924.747" cy="-234" rx="27" ry="18"/>
<text text-anchor="middle" x="924.747" y="-230.3" font-family="Times New Roman,serif" font-size="14.00">382</text>
</g>
<!-- 384&#45;&gt;382 -->
<g id="edge18" class="edge"><title>384&#45;&gt;382</title>
<path fill="none" stroke="black" d="M924.747,-287.697C924.747,-279.983 924.747,-270.712 924.747,-262.112"/>
<polygon fill="black" stroke="black" points="928.247,-262.104 924.747,-252.104 921.247,-262.104 928.247,-262.104"/>
</g>
<!-- 385 -->
<g id="node23" class="node"><title>385</title>
<ellipse fill="none" stroke="black" cx="1039.75" cy="-234" rx="27" ry="18"/>
<text text-anchor="middle" x="1039.75" y="-230.3" font-family="Times New Roman,serif" font-size="14.00">385</text>
</g>
<!-- 384&#45;&gt;385 -->
<g id="edge21" class="edge"><title>384&#45;&gt;385</title>
<path fill="none" stroke="black" d="M943.995,-293.284C962.487,-282.028 990.639,-264.892 1011.64,-252.11"/>
<polygon fill="black" stroke="black" points="1013.71,-254.944 1020.44,-246.755 1010.07,-248.964 1013.71,-254.944"/>
</g>
<!-- Filme1 -->
<g id="node22" class="node"><title>Filme1</title>
<ellipse fill="none" stroke="black" cx="879.747" cy="-162" rx="35.194" ry="18"/>
<text text-anchor="middle" x="879.747" y="-158.3" font-family="Times New Roman,serif" font-size="14.00">Filme1</text>
</g>
<!-- 382&#45;&gt;Filme1 -->
<g id="edge19" class="edge"><title>382&#45;&gt;Filme1</title>
<path fill="none" stroke="black" d="M914.536,-217.116C908.977,-208.469 901.974,-197.575 895.711,-187.833"/>
<polygon fill="black" stroke="black" points="898.582,-185.826 890.23,-179.307 892.693,-189.611 898.582,-185.826"/>
</g>
<!-- 385&#45;MIME_TYPE_TEXT_THUMB -->
<g id="node24" class="node"><title>385&#45;MIME_TYPE_TEXT_THUMB</title>
<ellipse fill="none" stroke="black" cx="1076.75" cy="-162" rx="143.775" ry="18"/>
<text text-anchor="middle" x="1076.75" y="-158.3" font-family="Times New Roman,serif" font-size="14.00">385&#45;MIME_TYPE_TEXT_THUMB</text>
</g>
<!-- 385&#45;&gt;385&#45;MIME_TYPE_TEXT_THUMB -->
<g id="edge20" class="edge"><title>385&#45;&gt;385&#45;MIME_TYPE_TEXT_THUMB</title>
<path fill="none" stroke="red" d="M1048.33,-216.765C1052.68,-208.525 1058.08,-198.317 1063,-189.016"/>
<polygon fill="red" stroke="red" points="1066.12,-190.6 1067.7,-180.124 1059.93,-187.329 1066.12,-190.6"/>
</g>
<!-- 387 -->
<g id="node25" class="node"><title>387</title>
<ellipse fill="none" stroke="black" cx="1643.75" cy="-162" rx="27" ry="18"/>
<text text-anchor="middle" x="1643.75" y="-158.3" font-family="Times New Roman,serif" font-size="14.00">387</text>
</g>
<!-- 387&#45;CONCEITO -->
<g id="node26" class="node"><title>387&#45;CONCEITO</title>
<ellipse fill="none" stroke="black" cx="1620.75" cy="-90" rx="73.387" ry="18"/>
<text text-anchor="middle" x="1620.75" y="-86.3" font-family="Times New Roman,serif" font-size="14.00">387&#45;CONCEITO</text>
</g>
<!-- 387&#45;&gt;387&#45;CONCEITO -->
<g id="edge22" class="edge"><title>387&#45;&gt;387&#45;CONCEITO</title>
<path fill="none" stroke="red" d="M1638.18,-144.055C1635.59,-136.176 1632.45,-126.617 1629.55,-117.794"/>
<polygon fill="red" stroke="red" points="1632.87,-116.683 1626.42,-108.275 1626.22,-118.868 1632.87,-116.683"/>
</g>
<!-- 386 -->
<g id="node27" class="node"><title>386</title>
<ellipse fill="none" stroke="black" cx="1643.75" cy="-234" rx="27" ry="18"/>
<text text-anchor="middle" x="1643.75" y="-230.3" font-family="Times New Roman,serif" font-size="14.00">386</text>
</g>
<!-- 386&#45;&gt;387 -->
<g id="edge23" class="edge"><title>386&#45;&gt;387</title>
<path fill="none" stroke="black" d="M1643.75,-215.697C1643.75,-207.983 1643.75,-198.712 1643.75,-190.112"/>
<polygon fill="black" stroke="black" points="1647.25,-190.104 1643.75,-180.104 1640.25,-190.104 1647.25,-190.104"/>
</g>
<!-- 391 -->
<g id="node28" class="node"><title>391</title>
<ellipse fill="none" stroke="black" cx="1738.75" cy="-162" rx="27" ry="18"/>
<text text-anchor="middle" x="1738.75" y="-158.3" font-family="Times New Roman,serif" font-size="14.00">391</text>
</g>
<!-- 386&#45;&gt;391 -->
<g id="edge24" class="edge"><title>386&#45;&gt;391</title>
<path fill="none" stroke="black" d="M1661.17,-220.161C1675.68,-209.473 1696.54,-194.101 1712.98,-181.989"/>
<polygon fill="black" stroke="black" points="1715.14,-184.744 1721.11,-175.995 1710.98,-179.109 1715.14,-184.744"/>
</g>
<!-- 389 -->
<g id="node29" class="node"><title>389</title>
<ellipse fill="none" stroke="black" cx="1738.75" cy="-90" rx="27" ry="18"/>
<text text-anchor="middle" x="1738.75" y="-86.3" font-family="Times New Roman,serif" font-size="14.00">389</text>
</g>
<!-- 391&#45;&gt;389 -->
<g id="edge25" class="edge"><title>391&#45;&gt;389</title>
<path fill="none" stroke="black" d="M1738.75,-143.697C1738.75,-135.983 1738.75,-126.712 1738.75,-118.112"/>
<polygon fill="black" stroke="black" points="1742.25,-118.104 1738.75,-108.104 1735.25,-118.104 1742.25,-118.104"/>
</g>
<!-- 392 -->
<g id="node31" class="node"><title>392</title>
<ellipse fill="none" stroke="black" cx="1874.75" cy="-90" rx="27" ry="18"/>
<text text-anchor="middle" x="1874.75" y="-86.3" font-family="Times New Roman,serif" font-size="14.00">392</text>
</g>
<!-- 391&#45;&gt;392 -->
<g id="edge28" class="edge"><title>391&#45;&gt;392</title>
<path fill="none" stroke="black" d="M1759.4,-150.369C1782.17,-138.651 1818.99,-119.698 1844.89,-106.366"/>
<polygon fill="black" stroke="black" points="1846.61,-109.42 1853.9,-101.732 1843.4,-103.196 1846.61,-109.42"/>
</g>
<!-- Seriado -->
<g id="node30" class="node"><title>Seriado</title>
<ellipse fill="none" stroke="black" cx="1706.75" cy="-18" rx="38.1938" ry="18"/>
<text text-anchor="middle" x="1706.75" y="-14.3" font-family="Times New Roman,serif" font-size="14.00">Seriado</text>
</g>
<!-- 389&#45;&gt;Seriado -->
<g id="edge26" class="edge"><title>389&#45;&gt;Seriado</title>
<path fill="none" stroke="black" d="M1731.16,-72.411C1727.43,-64.2493 1722.85,-54.2203 1718.66,-45.0653"/>
<polygon fill="black" stroke="black" points="1721.84,-43.5958 1714.5,-35.9562 1715.47,-46.5061 1721.84,-43.5958"/>
</g>
<!-- 392&#45;MIME_TYPE_TEXT_THUMB -->
<g id="node32" class="node"><title>392&#45;MIME_TYPE_TEXT_THUMB</title>
<ellipse fill="none" stroke="black" cx="1906.75" cy="-18" rx="143.775" ry="18"/>
<text text-anchor="middle" x="1906.75" y="-14.3" font-family="Times New Roman,serif" font-size="14.00">392&#45;MIME_TYPE_TEXT_THUMB</text>
</g>
<!-- 392&#45;&gt;392&#45;MIME_TYPE_TEXT_THUMB -->
<g id="edge27" class="edge"><title>392&#45;&gt;392&#45;MIME_TYPE_TEXT_THUMB</title>
<path fill="none" stroke="red" d="M1882.33,-72.411C1885.97,-64.4539 1890.42,-54.7221 1894.52,-45.7557"/>
<polygon fill="red" stroke="red" points="1897.8,-46.9967 1898.77,-36.4468 1891.43,-44.0864 1897.8,-46.9967"/>
</g>
<!-- 394 -->
<g id="node33" class="node"><title>394</title>
<ellipse fill="none" stroke="black" cx="1323.75" cy="-306" rx="27" ry="18"/>
<text text-anchor="middle" x="1323.75" y="-302.3" font-family="Times New Roman,serif" font-size="14.00">394</text>
</g>
<!-- 394&#45;CONCEITO -->
<g id="node34" class="node"><title>394&#45;CONCEITO</title>
<ellipse fill="none" stroke="black" cx="1264.75" cy="-234" rx="73.387" ry="18"/>
<text text-anchor="middle" x="1264.75" y="-230.3" font-family="Times New Roman,serif" font-size="14.00">394&#45;CONCEITO</text>
</g>
<!-- 394&#45;&gt;394&#45;CONCEITO -->
<g id="edge29" class="edge"><title>394&#45;&gt;394&#45;CONCEITO</title>
<path fill="none" stroke="red" d="M1310.94,-289.811C1303.56,-281.054 1294.1,-269.83 1285.67,-259.822"/>
<polygon fill="red" stroke="red" points="1288.3,-257.517 1279.18,-252.127 1282.95,-262.029 1288.3,-257.517"/>
</g>
<!-- 393 -->
<g id="node35" class="node"><title>393</title>
<ellipse fill="none" stroke="black" cx="1418.75" cy="-378" rx="27" ry="18"/>
<text text-anchor="middle" x="1418.75" y="-374.3" font-family="Times New Roman,serif" font-size="14.00">393</text>
</g>
<!-- 393&#45;&gt;394 -->
<g id="edge30" class="edge"><title>393&#45;&gt;394</title>
<path fill="none" stroke="black" d="M1401.32,-364.161C1386.82,-353.473 1365.95,-338.101 1349.52,-325.989"/>
<polygon fill="black" stroke="black" points="1351.51,-323.109 1341.38,-319.995 1347.36,-328.744 1351.51,-323.109"/>
</g>
<!-- 398 -->
<g id="node36" class="node"><title>398</title>
<ellipse fill="none" stroke="black" cx="1418.75" cy="-306" rx="27" ry="18"/>
<text text-anchor="middle" x="1418.75" y="-302.3" font-family="Times New Roman,serif" font-size="14.00">398</text>
</g>
<!-- 393&#45;&gt;398 -->
<g id="edge31" class="edge"><title>393&#45;&gt;398</title>
<path fill="none" stroke="black" d="M1418.75,-359.697C1418.75,-351.983 1418.75,-342.712 1418.75,-334.112"/>
<polygon fill="black" stroke="black" points="1422.25,-334.104 1418.75,-324.104 1415.25,-334.104 1422.25,-334.104"/>
</g>
<!-- 400 -->
<g id="node39" class="node"><title>400</title>
<ellipse fill="none" stroke="black" cx="1584.75" cy="-306" rx="27" ry="18"/>
<text text-anchor="middle" x="1584.75" y="-302.3" font-family="Times New Roman,serif" font-size="14.00">400</text>
</g>
<!-- 393&#45;&gt;400 -->
<g id="edge34" class="edge"><title>393&#45;&gt;400</title>
<path fill="none" stroke="black" d="M1441.13,-367.559C1469.93,-355.418 1520.12,-334.254 1552.88,-320.437"/>
<polygon fill="black" stroke="black" points="1554.6,-323.513 1562.45,-316.402 1551.88,-317.063 1554.6,-323.513"/>
</g>
<!-- 396 -->
<g id="node37" class="node"><title>396</title>
<ellipse fill="none" stroke="black" cx="1382.75" cy="-234" rx="27" ry="18"/>
<text text-anchor="middle" x="1382.75" y="-230.3" font-family="Times New Roman,serif" font-size="14.00">396</text>
</g>
<!-- 398&#45;&gt;396 -->
<g id="edge32" class="edge"><title>398&#45;&gt;396</title>
<path fill="none" stroke="black" d="M1410.4,-288.765C1406.04,-280.283 1400.6,-269.714 1395.71,-260.197"/>
<polygon fill="black" stroke="black" points="1398.74,-258.439 1391.05,-251.147 1392.51,-261.641 1398.74,-258.439"/>
</g>
<!-- 399 -->
<g id="node40" class="node"><title>399</title>
<ellipse fill="none" stroke="black" cx="1454.75" cy="-234" rx="27" ry="18"/>
<text text-anchor="middle" x="1454.75" y="-230.3" font-family="Times New Roman,serif" font-size="14.00">399</text>
</g>
<!-- 398&#45;&gt;399 -->
<g id="edge37" class="edge"><title>398&#45;&gt;399</title>
<path fill="none" stroke="black" d="M1427.1,-288.765C1431.46,-280.283 1436.89,-269.714 1441.79,-260.197"/>
<polygon fill="black" stroke="black" points="1444.98,-261.641 1446.44,-251.147 1438.76,-258.439 1444.98,-261.641"/>
</g>
<!-- Ep0 -->
<g id="node38" class="node"><title>Ep0</title>
<ellipse fill="none" stroke="black" cx="1265.75" cy="-162" rx="27" ry="18"/>
<text text-anchor="middle" x="1265.75" y="-158.3" font-family="Times New Roman,serif" font-size="14.00">Ep0</text>
</g>
<!-- 396&#45;&gt;Ep0 -->
<g id="edge33" class="edge"><title>396&#45;&gt;Ep0</title>
<path fill="none" stroke="black" d="M1363.16,-221.284C1344.27,-209.977 1315.45,-192.738 1294.06,-179.938"/>
<polygon fill="black" stroke="black" points="1295.77,-176.885 1285.39,-174.755 1292.18,-182.892 1295.77,-176.885"/>
</g>
<!-- 400&#45;&gt;386 -->
<g id="edge35" class="edge"><title>400&#45;&gt;386</title>
<path fill="none" stroke="black" d="M1597.55,-289.811C1605.36,-280.546 1615.49,-268.52 1624.28,-258.094"/>
<polygon fill="black" stroke="black" points="1627.2,-260.061 1630.97,-250.159 1621.85,-255.55 1627.2,-260.061"/>
</g>
<!-- 399&#45;MIME_TYPE_TEXT_THUMB -->
<g id="node41" class="node"><title>399&#45;MIME_TYPE_TEXT_THUMB</title>
<ellipse fill="none" stroke="black" cx="1454.75" cy="-162" rx="143.775" ry="18"/>
<text text-anchor="middle" x="1454.75" y="-158.3" font-family="Times New Roman,serif" font-size="14.00">399&#45;MIME_TYPE_TEXT_THUMB</text>
</g>
<!-- 399&#45;&gt;399&#45;MIME_TYPE_TEXT_THUMB -->
<g id="edge36" class="edge"><title>399&#45;&gt;399&#45;MIME_TYPE_TEXT_THUMB</title>
<path fill="none" stroke="red" d="M1454.75,-215.697C1454.75,-207.983 1454.75,-198.712 1454.75,-190.112"/>
<polygon fill="red" stroke="red" points="1458.25,-190.104 1454.75,-180.104 1451.25,-190.104 1458.25,-190.104"/>
</g>
</g>
</svg>
